<svg width="102" height="76" viewBox="0 0 102 76" fill="none" xmlns="http://www.w3.org/2000/svg">
<path fill-rule="evenodd" clip-rule="evenodd" d="M91.7379 61.0891C93.443 59.3453 94.9186 57.5618 96.1646 55.7373C98.2171 52.731 99.9034 49.212 101.224 45.1796C101.224 44.5188 101.041 44.0058 100.674 43.6394C100.307 43.2731 99.8667 43.0893 99.3547 43.0893C98.7675 43.0893 98.2171 43.4557 97.705 44.1891C97.1913 45.5093 96.4761 47.0488 95.5595 48.8089C94.643 50.5684 93.5984 52.273 92.4249 53.9228C91.2592 55.562 89.9679 56.9838 88.5495 58.1878C88.5402 58.1959 88.5299 58.2042 88.5205 58.2122C85.9628 60.3775 83.7154 61.4915 82.9667 57.4978C82.7463 56.324 82.6366 55.0779 82.6366 53.7577C82.6366 51.9983 82.7274 50.2014 82.9117 48.3686C83.0944 46.5353 83.1864 44.9952 83.1864 43.7498C82.9667 42.796 82.581 42.1 82.0319 41.6595C81.4819 41.2191 80.8765 40.9998 80.2168 40.9998C79.043 41.1462 78.0169 41.8059 77.1371 42.9797L71.6378 51.9983C71.7842 50.0184 72.1873 47.9465 72.8473 45.7842C73.5071 43.6211 73.8371 41.4762 73.8371 39.35C73.8371 38.6899 73.7821 38.0111 73.6721 37.3151C73.5617 36.6187 73.3607 35.9767 73.0673 35.3903C72.7743 34.8036 72.3713 34.3085 71.8573 33.9054C71.3445 33.5021 70.6475 33.3 69.768 33.3C68.7419 33.3 67.8249 33.6487 67.0181 34.3451C66.212 35.0418 65.4606 35.8849 64.7636 36.8747C64.0674 37.8649 63.4434 38.8549 62.8934 39.8454L62.1935 41.1051L61.5189 42.3193C60.7128 43.5657 59.979 44.8855 59.3187 46.279C58.6592 47.6718 57.9265 49.065 57.1197 50.4588C57.6325 48.5515 58.1092 46.682 58.5496 44.8489C58.989 43.0153 59.2093 41.3655 59.2093 39.9C59.2093 39.0936 59.0813 38.2685 58.8246 37.4248C58.2575 35.5622 56.2 33.7818 54.4432 33.1057C52.5366 32.3722 50.3734 32.0059 47.9535 32.0059C45.5346 32.0059 42.931 32.2989 40.1454 32.8857C37.3585 33.4721 34.6641 34.1501 32.0612 34.9202C29.4579 35.6899 27.0197 36.497 24.7468 37.3401C22.4739 38.1832 20.6041 38.8246 19.138 39.265C18.1842 39.705 17.7075 40.3281 17.7075 41.1348C17.7075 41.5748 17.8724 41.9596 18.2025 42.2896C18.5322 42.6193 18.9913 42.7846 19.5773 42.7846C19.651 42.7846 19.7244 42.7656 19.7973 42.7297C19.8713 42.6926 19.9444 42.675 20.0177 42.675C22.0709 42.4546 24.1604 42.2896 26.2863 42.1796C28.4128 42.0692 30.4664 41.7579 32.4463 41.2452C32.3276 42.3016 30.7998 47.4945 29.9714 49.4936C28.9083 52.0596 27.5514 54.4615 25.9016 56.6977C24.2517 58.9342 22.3089 60.9138 20.0724 62.6366C17.4891 64.6272 12.893 68.1329 9.78867 65.4959C9.58129 65.32 9.3856 65.1325 9.20229 64.9326C8.73555 64.4262 8.34486 63.8445 8.02918 63.1868C7.58876 62.2703 7.29573 61.2619 7.14939 60.1617C7.00237 59.0623 6.92936 57.9255 6.92936 56.7527C6.92936 54.7729 7.14939 52.3713 7.58876 49.5487C8.02918 46.7257 8.68887 43.7007 9.56866 40.4751C10.448 37.2484 11.5482 33.9308 12.8683 30.5204C14.0921 27.3591 15.4899 24.3235 17.0597 21.4142C17.183 21.1858 17.307 20.9581 17.4324 20.7321C19.1562 17.6158 21.0808 14.7561 23.2066 12.1539C25.3335 9.55062 27.6431 7.40606 30.1367 5.71962C31.3099 4.9122 32.4463 4.50913 33.5461 4.50913C34.6458 4.50913 35.5439 4.89453 36.241 5.66389C36.937 6.43436 37.5054 7.42407 37.9455 8.63388C38.3852 9.84368 38.6969 11.2181 38.8803 12.7586C39.0629 14.2978 39.1553 15.8006 39.1553 17.2678C39.1553 19.8336 38.9349 21.9239 38.4956 23.5367C38.0552 25.1502 37.8351 26.14 37.8351 26.5064C37.8351 27.6064 38.4216 28.1562 39.5956 28.1562C40.2551 28.1562 40.8234 27.8265 41.3002 27.166C41.7762 26.5064 42.1982 25.6266 42.5646 24.5268C42.931 23.4267 43.206 22.1989 43.3894 20.8425C43.5731 19.4856 43.6644 18.0745 43.6644 16.608C43.6644 11.6952 42.8576 7.69913 41.2445 4.61948C39.6313 1.54017 37.0651 0 33.5461 0C31.0525 0 28.6696 0.604735 26.3966 1.81522C24.1237 3.02461 22.2539 4.58244 20.7868 6.48898C17.169 10.9757 13.9974 15.6055 11.2711 20.3784C11.2355 20.4414 11.1995 20.5044 11.1634 20.5674C8.41382 25.4062 6.08594 30.5761 4.17942 36.0746C3.07965 39.3743 2.10788 42.8943 1.26513 46.6343C0.422039 50.3734 0 53.9662 0 57.4121C0 59.3186 0.220026 61.2252 0.659733 63.1317C1.09978 65.0382 1.77785 66.7614 2.69527 68.3009C2.99497 68.8053 3.327 69.278 3.6897 69.7197C4.43578 70.6258 5.31421 71.3999 6.32464 72.0406C7.82746 72.9934 9.64231 73.4704 11.7682 73.4704C13.6017 73.4704 15.3795 73.0674 17.1027 72.2606C18.8262 71.4535 20.4571 70.4091 21.9972 69.1256C23.5364 67.8429 24.9488 66.413 26.2313 64.8366C27.5148 63.2597 28.6696 61.7022 29.6963 60.1617C29.6227 60.5291 29.4946 61.2068 29.3116 62.1973C29.1279 63.1868 28.9263 64.3232 28.7069 65.6066C28.4868 66.8894 28.3035 68.2276 28.1572 69.6207C28.0099 71.0138 27.9368 72.2973 27.9368 73.4704C27.9368 75.1566 28.4868 76 29.5866 76C30.2464 76 30.8694 75.707 31.4558 75.1203C31.9692 71.8206 32.5192 68.9063 33.1057 66.3761C33.6924 63.8461 34.2605 61.4089 34.8105 59.0623C35.3602 56.716 35.9103 54.2778 36.4603 51.7482C37.0101 49.2187 37.5418 46.34 38.0552 43.1143L38.6052 39.9254C40.5851 39.485 42.7109 39.0813 44.9845 38.7149C47.2575 38.3486 49.1266 38.1648 50.5937 38.1648C51.7666 38.1648 52.7386 38.4399 53.5081 38.9899C54.4568 39.6683 54.8652 40.2527 54.4799 41.3298C54.2554 41.9569 54.0543 42.6351 53.8414 43.3534L53.8412 43.3538L53.8411 43.3542L53.841 43.3544L53.841 43.3546L53.841 43.3546C53.5935 44.1893 53.33 45.0783 52.995 46.0043C52.3722 47.7271 51.7849 49.5233 51.2348 51.3932C50.6858 53.2634 50.2091 55.1143 49.8053 56.9474C49.4024 58.7803 49.2003 60.4667 49.2003 62.0069C49.2003 63.5464 49.5127 64.6836 50.1357 65.4163C50.7588 66.149 51.5099 66.5164 52.3903 66.5164C53.4904 66.5164 54.6268 65.8929 55.7999 64.6462C56.9728 63.4001 58.1092 61.8962 59.2093 60.1371C60.3091 58.3776 61.3359 56.5621 62.2886 54.6928C63.2423 52.8233 64.0485 51.2645 64.7085 50.0184C64.6355 50.7511 64.5621 51.4848 64.4885 52.2183C64.4155 52.951 64.3788 53.6848 64.3788 54.4181C64.3788 55.1509 64.4155 55.9756 64.4885 56.8928C64.5621 57.8092 64.7269 58.6706 64.9836 59.4774C65.2403 60.2838 65.6623 60.9618 66.248 61.5119C66.8351 62.0616 67.6418 62.3367 68.6679 62.3367C70.7214 62.3367 72.3889 61.6223 73.6721 60.1918C74.9559 58.7619 76.1104 57.2045 77.1371 55.5179C77.2104 56.4707 77.3758 57.5525 77.6325 58.7619C77.8882 59.9723 78.2735 61.0898 78.7869 62.1166C79.2997 63.1434 80.0151 64.0231 80.9318 64.7565C81.8476 65.4893 83.0023 65.8567 84.3962 65.8567C85.2016 65.8567 85.9176 65.7093 86.5415 65.4163C87.1645 65.1229 87.6961 64.7932 88.1356 64.4269C89.4328 63.3311 90.6336 62.2183 91.7379 61.0891ZM40.8678 72.0889H41.4031C41.8632 72.0889 42.2242 71.9485 42.4879 71.6658C42.7506 71.3848 42.882 71.0061 42.882 70.5307C42.882 70.057 42.7506 69.6796 42.4879 69.3986C42.2242 69.1159 41.8632 68.9756 41.4031 68.9756H40.8678V72.0889ZM41.4031 68.0618C42.1919 68.0618 42.8396 68.2878 43.346 68.7465C43.8537 69.2029 44.1077 69.7986 44.1077 70.5294C44.1077 71.2578 43.8537 71.8539 43.346 72.3136C42.8396 72.7736 42.1919 73.0026 41.4031 73.0026H39.6633V68.0618H41.4031ZM51.0858 68.9619V68.0465H48.0929V73.0026H51.0858V72.0889H49.298V70.9418H50.8748V70.025H49.298V68.9619H51.0858ZM57.023 68.9405C56.8724 68.9405 56.749 68.9798 56.6527 69.0595C56.5573 69.1405 56.5083 69.2535 56.5083 69.4045C56.5083 69.5546 56.5534 69.6752 56.6423 69.7686C56.7313 69.8599 56.847 69.9286 56.9914 69.9796C57.1341 70.0279 57.293 70.074 57.4701 70.1196C57.6458 70.1636 57.8208 70.219 57.9945 70.2816C58.1678 70.3447 58.3269 70.4237 58.4699 70.5167C58.6132 70.6117 58.7296 70.7447 58.8185 70.9174C58.9082 71.0867 58.9526 71.2917 58.9526 71.5314C58.9526 71.9498 58.7812 72.3075 58.4412 72.6055C58.1015 72.9036 57.6531 73.0529 57.0964 73.0529C56.54 73.0529 56.0923 72.9202 55.7516 72.6529C55.4116 72.3839 55.2413 72.0048 55.2413 71.5114H56.5227C56.5557 71.9045 56.757 72.1015 57.1281 72.1015C57.3014 72.1015 57.4385 72.0568 57.5364 71.9655C57.6354 71.8718 57.6851 71.7575 57.6851 71.6168C57.6851 71.4748 57.6405 71.3617 57.5508 71.2717C57.4614 71.1831 57.3458 71.1114 57.2028 71.0607C57.0594 71.0087 56.899 70.96 56.7237 70.9174C56.547 70.8727 56.3723 70.8164 56.1979 70.7507C56.0249 70.6867 55.8666 70.6057 55.7229 70.514C55.5795 70.4237 55.4636 70.2926 55.3749 70.1196C55.2862 69.9486 55.2413 69.7456 55.2413 69.5102C55.2413 69.0505 55.4119 68.6818 55.7553 68.4054C56.098 68.1278 56.5354 67.9901 57.0681 67.9901C57.6011 67.9901 58.0318 68.1094 58.3608 68.3518C58.6889 68.5935 58.861 68.9755 58.8753 69.4949H57.5651C57.5461 69.3175 57.4887 69.1815 57.3927 69.0839C57.2967 68.9875 57.1724 68.9405 57.023 68.9405ZM64.3325 73.0026H63.1283V68.0618H64.3325V73.0026ZM69.0613 72.3318C68.5709 71.8538 68.3263 71.2504 68.3263 70.5166C68.3263 69.7866 68.5709 69.1815 69.0613 68.7048C69.5524 68.2267 70.1521 67.99 70.8605 67.99C71.4112 67.99 71.8986 68.1364 72.3256 68.4258C72.7534 68.7175 73.0511 69.1205 73.2198 69.6369H71.7839C71.5955 69.2765 71.2949 69.0958 70.8829 69.0958C70.4684 69.0958 70.1438 69.2245 69.9067 69.4825C69.6697 69.7405 69.5503 70.0863 69.5503 70.5166C69.5503 70.9477 69.6697 71.2947 69.9067 71.5544C70.1438 71.8128 70.4621 71.9394 70.8605 71.9394C71.1472 71.9394 71.3802 71.8688 71.5612 71.7254C71.7419 71.5834 71.8626 71.3924 71.9246 71.1507H70.5305V70.2376H73.2198V71.1507C73.1308 71.6017 72.8847 72.0234 72.4804 72.4115C72.2886 72.5995 72.0502 72.7535 71.7666 72.8682C71.4819 72.9855 71.1798 73.0469 70.8605 73.0469C70.1521 73.0469 69.5524 72.8069 69.0613 72.3318ZM81.6436 68.0465H80.4384V71.1665L78.4242 68.0465H77.2207V73.0026H78.4242V69.883L80.4384 73.0026H81.6436V68.0465Z" fill="#27009D"/>
</svg>
